<?xml version="1.0" standalone="no"?>
<!DOCTYPE svg PUBLIC "-//W3C//DTD SVG 20010904//EN"
 "http://www.w3.org/TR/2001/REC-SVG-20010904/DTD/svg10.dtd">
<svg version="1.0" xmlns="http://www.w3.org/2000/svg"
 width="331.000000pt" height="332.000000pt" viewBox="0 0 331.000000 332.000000"
 preserveAspectRatio="xMidYMid meet">
<metadata>
Created by potrace 1.15, written by Peter Selinger 2001-2017
</metadata>
<g transform="translate(0.000000,332.000000) scale(0.100000,-0.100000)"
fill="#000000" stroke="none">
<path d="M1487 2900 c-125 -42 -230 -80 -233 -83 -3 -3 -10 -23 -15 -44 -4
-21 -40 -173 -78 -338 -38 -165 -68 -301 -66 -303 2 -3 139 -53 304 -113 l300
-109 158 55 c87 30 232 80 323 111 91 31 168 59 172 63 4 3 -22 125 -58 271
-35 146 -72 297 -80 335 -9 39 -20 76 -24 84 -7 12 -439 151 -465 149 -5 0
-113 -35 -238 -78z"/>
<path d="M2410 2026 c-47 -19 -219 -86 -383 -150 l-298 -116 -157 56 c-86 31
-264 94 -394 140 l-238 84 -217 -50 c-119 -28 -225 -50 -235 -50 -28 0 -21
-14 15 -29 17 -8 48 -24 67 -36 36 -22 94 -55 190 -108 98 -53 368 -187 379
-187 5 0 16 -6 23 -14 16 -16 164 -76 260 -105 85 -26 229 -51 289 -51 90 0
259 40 364 85 17 8 57 23 90 36 33 12 67 27 75 34 8 7 58 31 110 55 85 37 229
110 503 254 48 25 94 46 102 46 8 0 15 3 15 8 0 4 -64 24 -142 45 -79 20 -183
48 -233 62 -49 14 -92 25 -95 24 -3 0 -43 -15 -90 -33z"/>
<path d="M573 1762 c-146 -82 -203 -116 -203 -124 0 -5 114 -133 253 -285 138
-151 253 -281 255 -287 1 -6 -17 -18 -40 -27 -190 -71 -298 -114 -298 -120 0
-4 174 -124 388 -267 213 -143 461 -310 551 -371 91 -61 166 -109 168 -107 3
2 -12 26 -31 54 -20 27 -36 53 -36 57 0 8 -159 259 -207 326 -22 31 -31 53
-27 65 4 15 4 16 -4 5 -8 -11 -12 -10 -21 8 -7 12 -9 26 -6 31 4 6 2 9 -3 8
-9 -3 -72 74 -72 88 0 8 -55 86 -79 111 -11 12 -34 46 -50 77 -30 54 -160 258
-221 346 -17 25 -58 86 -91 135 -33 50 -78 115 -100 145 -23 30 -53 76 -68
102 l-27 47 -31 -17z"/>
<path d="M2776 1683 c-35 -54 -73 -107 -84 -119 -11 -11 -39 -52 -63 -90 -24
-38 -46 -71 -49 -74 -3 -3 -38 -54 -78 -115 -39 -60 -76 -117 -82 -125 -32
-47 -80 -122 -109 -175 -19 -33 -47 -76 -64 -95 -16 -19 -81 -114 -143 -210
-62 -96 -117 -180 -123 -186 -17 -20 -101 -154 -101 -162 0 -4 -11 -23 -23
-42 -13 -19 -32 -48 -43 -64 l-18 -29 22 12 c12 6 81 51 154 99 73 49 167 110
208 137 567 367 720 468 720 474 0 4 -74 29 -165 56 -91 28 -165 54 -165 58 0
7 173 206 255 293 5 6 42 46 80 90 39 43 94 104 123 135 60 64 64 52 -53 134
-38 27 -84 59 -102 72 l-32 24 -65 -98z"/>
<path d="M1162 1307 c3 -6 24 -84 48 -172 24 -88 48 -166 53 -173 17 -22 447
-357 463 -360 9 -2 43 20 77 50 34 29 73 63 87 74 36 31 285 237 287 239 5 3
71 331 67 336 -2 4 -43 -7 -91 -23 -133 -43 -312 -87 -390 -94 -53 -5 -95 -1
-174 15 -88 19 -297 76 -403 111 -21 7 -27 7 -24 -3z"/>
</g>
</svg>
