<?xml version="1.0" standalone="no"?>
<!DOCTYPE svg PUBLIC "-//W3C//DTD SVG 20010904//EN"
 "http://www.w3.org/TR/2001/REC-SVG-20010904/DTD/svg10.dtd">
<svg version="1.0" xmlns="http://www.w3.org/2000/svg"
 width="272.000000pt" height="281.000000pt" viewBox="0 0 272.000000 281.000000"
 preserveAspectRatio="xMidYMid meet">
<metadata>
Created by potrace 1.15, written by Peter Selinger 2001-2017
</metadata>
<g transform="translate(0.000000,281.000000) scale(0.100000,-0.100000)"
fill="#000000" stroke="none">
<path d="M1118 2723 l-227 -77 -16 -75 c-19 -87 -62 -274 -109 -472 l-32 -135
85 -31 c109 -40 434 -157 484 -174 35 -13 45 -11 120 14 161 56 342 119 362
127 11 5 58 21 105 36 47 15 89 31 94 35 8 7 -1 53 -83 389 -21 85 -46 189
-56 232 l-19 76 -75 22 c-87 26 -180 54 -266 82 -113 36 -120 35 -367 -49z"/>
<path d="M1850 1773 c-162 -63 -335 -131 -383 -151 -101 -41 -85 -42 -277 27
-63 23 -164 59 -225 81 -60 21 -171 60 -245 86 l-135 48 -130 -28 c-72 -15
-176 -37 -232 -49 -57 -12 -103 -25 -103 -29 0 -5 4 -8 10 -8 5 0 52 -25 105
-55 52 -30 98 -55 101 -55 3 0 18 -9 33 -20 33 -23 426 -220 440 -220 5 0 11
-5 13 -11 10 -29 272 -113 421 -135 100 -15 117 -15 215 0 99 16 181 38 257
71 17 8 57 23 90 36 33 12 67 27 75 34 12 10 334 174 665 339 l60 30 -50 11
c-28 7 -95 24 -150 39 -55 15 -133 36 -174 47 -41 11 -77 22 -80 23 -3 2 -139
-48 -301 -111z"/>
<path d="M135 1545 c-50 -30 -98 -59 -108 -65 -21 -13 -26 -5 158 -205 56 -60
126 -137 155 -170 30 -33 73 -80 96 -105 68 -72 84 -92 84 -105 0 -11 -220
-105 -282 -120 -65 -16 -55 -28 114 -142 661 -443 875 -588 891 -601 31 -27
30 -4 -2 40 -17 23 -31 47 -31 54 0 12 -136 231 -197 315 -22 31 -31 53 -27
65 4 15 4 16 -4 5 -8 -11 -12 -10 -21 8 -7 12 -9 26 -6 31 3 6 0 10 -7 10 -13
0 -50 50 -77 103 -7 15 -26 39 -41 55 -34 33 -100 130 -100 146 0 10 -130 215
-200 316 -17 25 -55 81 -83 125 -29 45 -69 101 -90 125 -21 25 -55 73 -75 107
-21 35 -41 62 -47 62 -5 0 -50 -25 -100 -54z"/>
<path d="M2419 1508 c-34 -51 -72 -102 -84 -113 -12 -11 -41 -51 -65 -90 -24
-38 -47 -72 -50 -75 -3 -3 -23 -32 -44 -65 -53 -82 -109 -168 -119 -180 -24
-30 -76 -117 -100 -167 -16 -32 -44 -74 -63 -95 -20 -21 -87 -117 -149 -213
-63 -96 -119 -180 -124 -187 -6 -7 -28 -39 -49 -73 -21 -33 -42 -57 -46 -53
-4 5 -7 3 -6 -2 6 -28 -3 -55 -35 -104 -29 -44 -32 -51 -13 -37 13 9 30 19 38
23 8 4 17 9 20 12 3 4 75 51 160 106 85 55 160 103 165 108 6 4 30 20 55 36
41 26 222 144 508 330 62 41 109 77 105 81 -4 4 -24 12 -43 18 -214 64 -270
85 -270 102 0 10 3 20 8 22 4 2 45 46 92 98 47 52 87 97 90 100 3 3 61 68 129
145 69 77 138 154 154 172 l29 31 -87 64 c-48 34 -100 71 -115 81 l-29 18 -62
-93z"/>
<path d="M813 1119 c23 -104 90 -315 103 -331 13 -14 321 -259 441 -351 9 -6
36 11 90 54 43 35 80 66 83 70 6 7 201 172 248 209 18 14 36 39 41 55 14 45
63 296 59 301 -3 2 -18 0 -34 -5 -278 -86 -388 -111 -480 -111 -66 0 -240 33
-336 64 -40 13 -100 31 -133 41 -33 10 -66 20 -74 23 -10 4 -13 -1 -8 -19z"/>
</g>
</svg>
